<svg height="512" viewBox="0 0 512 512" width="512" xmlns="http://www.w3.org/2000/svg"><g id="flat"><circle cx="256" cy="256" fill="#c38325" r="216"/><circle cx="256" cy="256" fill="#fbb540" r="184"/><g fill="#c38325"><path d="m298.653 266.094a43.385 43.385 0 0 0 -85.306 0 43.388 43.388 0 1 0 42.653 68.687 43.389 43.389 0 1 0 42.653-68.687z"/><ellipse cx="203.998" cy="168.005" rx="26.034" ry="30.373" transform="matrix(.866 -.5 .5 .866 -56.672 124.507)"/><ellipse cx="148.61" cy="236.037" rx="26.034" ry="30.373" transform="matrix(.652 -.758 .758 .652 -127.236 194.717)"/><ellipse cx="308.002" cy="167.254" rx="30.373" ry="26.034" transform="matrix(.5 -.866 .866 .5 9.154 350.365)"/><ellipse cx="363.39" cy="233.25" rx="30.373" ry="26.034" transform="matrix(.758 -.652 .652 .758 -64.196 293.486)"/></g><path d="m363.088 362.167a34.706 34.706 0 0 1 24.541 10.166l11.8 11.8 11.8-11.8a34.7 34.7 0 0 1 24.54-10.166 34.706 34.706 0 0 1 28.877 15.455l.341.511a41.736 41.736 0 0 1 4.868 36.349 41.735 41.735 0 0 1 -16.443 21.528l-53.982 35.99-53.984-35.99a41.732 41.732 0 0 1 -16.446-21.528 41.739 41.739 0 0 1 4.868-36.349l.341-.511a34.707 34.707 0 0 1 28.879-15.455z" fill="#e82f3e"/></g></svg>