<svg width="516" height="107" viewBox="0 0 516 107" fill="none" xmlns="http://www.w3.org/2000/svg">
<path d="M439.317 81.5143L459.515 61.3166L469.683 71.4851L449.486 91.6826C449.062 92.1058 448.377 92.1058 447.953 91.6826L439.317 83.0465C438.894 82.6235 438.894 81.9377 439.317 81.5143Z" fill="#00F462"/>
<path d="M458.294 62.3932L461.873 58.8143C462.303 58.385 462.998 58.385 463.427 58.8143L465.046 60.433L467.893 57.5866C460.119 47.1346 460.944 32.3037 470.429 22.8189C480.854 12.3937 497.756 12.3937 508.181 22.8189C518.606 33.2439 518.606 50.1461 508.181 60.5712C498.696 70.0558 483.865 70.8813 473.413 63.1073L470.567 65.9537L472.186 67.5726C472.615 68.0019 472.615 68.6973 472.186 69.1266L468.607 72.7056L467.734 73.5786L457.421 63.2662L458.294 62.3932ZM474.904 56.0961C482.862 64.0544 495.765 64.0544 503.724 56.0961C511.682 48.1379 511.682 35.2348 503.723 27.2766C495.765 19.3182 482.862 19.3182 474.904 27.2766C466.946 35.2348 466.945 48.1377 474.904 56.0961Z" fill="#009E78"/>
<g clip-path="url(#clip0)">
<path d="M489.773 40.9562C483.67 40.9562 477.937 49.1837 477.937 54.1447C477.937 56.6098 480.76 58.5408 484.363 58.5408C485.718 58.5408 486.626 58.2413 487.428 57.977C488.161 57.7352 488.795 57.5263 489.773 57.5263C490.752 57.5263 491.385 57.7352 492.119 57.977C492.92 58.2413 493.829 58.5408 495.184 58.5408C498.787 58.5408 501.609 56.6098 501.609 54.1447C501.609 49.1837 495.876 40.9562 489.773 40.9562Z" fill="url(#paint0_linear)"/>
<path d="M483.686 23.9127C480.842 23.9127 478.614 27.3291 478.614 31.6905C478.614 36.0519 480.842 39.4683 483.686 39.4683C486.531 39.4683 488.759 36.0519 488.759 31.6905C488.759 27.3291 486.531 23.9127 483.686 23.9127Z" fill="url(#paint1_linear)"/>
<path d="M495.86 23.9127C493.016 23.9127 490.788 27.3291 490.788 31.6905C490.788 36.0519 493.016 39.4683 495.86 39.4683C498.705 39.4683 500.933 36.0519 500.933 31.6905C500.933 27.3291 498.705 23.9127 495.86 23.9127Z" fill="url(#paint2_linear)"/>
<path d="M479.787 39.6843C478.273 37.0848 475.765 36.1543 474.029 37.1513C472.276 38.1579 471.91 40.821 473.344 43.4041C474.786 46.0018 477.434 46.9079 479.102 45.9371C480.806 44.9446 481.289 42.2639 479.787 39.6843Z" fill="url(#paint3_linear)"/>
<path d="M505.517 37.1512C503.781 36.1542 501.273 37.0847 499.76 39.6842C498.258 42.2638 498.74 44.9446 500.445 45.937C502.113 46.9079 504.761 46.0018 506.203 43.404C507.636 40.8209 507.271 38.1579 505.517 37.1512Z" fill="url(#paint4_linear)"/>
</g>
<path d="M24.9 52.9C26.8333 54.8333 29.1333 55.8 31.8 55.8C34.5333 55.8 36.7333 54.9667 38.4 53.3C41.0667 50.5667 42.4 46.5 42.4 41.1C42.4 31.1667 38 26.2 29.2 26.2C26.4 26.2 23.2667 26.9333 19.8 28.4C19.3333 33.6667 19.1 43.6667 19.1 58.4C19.1 73.0667 19.6667 82.2 20.8 85.8C18.6 86.4667 16.5667 86.8 14.7 86.8C12.8333 86.8 11.3333 86.7333 10.2 86.6C11.1333 78.8 11.6 67.9 11.6 53.9C11.6 39.9 11.0333 29.7 9.9 23.3C15.5 21.4333 22.1 20.5 29.7 20.5C37.3 20.5 42.7667 22.3 46.1 25.9C49.4333 29.4333 51.1 34.4333 51.1 40.9C51.1 47.3 49.4 52.5 46 56.5C42.6667 60.5 37.5667 62.5 30.7 62.5C28.0333 62.5 25.4 62 22.8 61C22.8 59.2 23.0333 57.5333 23.5 56C23.9667 54.4667 24.4333 53.4333 24.9 52.9ZM69.125 78.4C71.4583 78.6 75.4917 78.7 81.225 78.7C86.9583 78.7 91.5917 78.4 95.125 77.8C95.6583 79.5333 95.925 81.2333 95.925 82.9C95.925 84.5 95.7917 85.9 95.525 87.1C94.2583 86.7667 91.5917 86.4333 87.525 86.1C83.4583 85.8333 78.8917 85.7 73.825 85.7C68.7583 85.7 63.9917 85.9333 59.525 86.4C60.4583 77.2 60.925 66.0333 60.925 52.9C60.925 39.7667 60.2917 29.2667 59.025 21.4C63.4917 21.8667 68.2917 22.1 73.425 22.1C78.5583 22.1 83.125 21.9667 87.125 21.7C91.1917 21.3667 93.825 21.0333 95.025 20.7C95.2917 21.9 95.425 23.2333 95.425 24.7C95.425 26.1667 95.1583 27.7667 94.625 29.5C91.0917 28.9 86.525 28.6 80.925 28.6C75.325 28.6 71.3583 28.7 69.025 28.9C68.625 32.7 68.425 39.5667 68.425 49.5C69.825 49.5667 73.1917 49.6 78.525 49.6C83.8583 49.6 88.1917 49.2333 91.525 48.5C91.8583 50.6333 92.025 52.4 92.025 53.8C92.025 55.1333 91.9917 56.2333 91.925 57.1C88.7917 56.5667 84.825 56.3 80.025 56.3C75.225 56.3 71.3583 56.3667 68.425 56.5C68.425 65.2333 68.6583 72.5333 69.125 78.4ZM125.98 28.6C125.647 33.8 125.48 43.7333 125.48 58.4C125.48 73.0667 126.047 82.2 127.18 85.8C124.98 86.4667 122.947 86.8 121.08 86.8C119.214 86.8 117.714 86.7333 116.58 86.6C117.514 78.8 117.98 68.6 117.98 56C117.98 43.3333 117.747 34.2 117.28 28.6C108.147 29 102.247 29.4667 99.5805 30C99.3138 29.0667 99.1805 27.8 99.1805 26.2C99.1805 24.6 99.4471 22.9333 99.9805 21.2C104.914 21.8 110.88 22.1 117.88 22.1C132.014 22.1 140.747 21.6333 144.08 20.7C144.347 21.9 144.48 23.2333 144.48 24.7C144.48 26.1667 144.214 27.7667 143.68 29.5C138.547 29.0333 132.647 28.7333 125.98 28.6ZM183.725 57.7C180.858 57.2333 176.725 57 171.325 57C165.925 57 162.625 57.0333 161.425 57.1C161.558 73.2333 162.125 82.8 163.125 85.8C160.925 86.4667 159.158 86.8 157.825 86.8C156.558 86.8 154.792 86.7333 152.525 86.6C153.458 78.8 153.925 67.9667 153.925 54.1C153.925 40.1667 153.292 29.2667 152.025 21.4C156.492 21.8667 161.125 22.1 165.925 22.1C170.725 22.1 175.125 21.9667 179.125 21.7C183.192 21.3667 185.825 21.0333 187.025 20.7C187.292 21.9 187.425 23.2333 187.425 24.7C187.425 26.1667 187.158 27.7667 186.625 29.5C183.092 28.9 178.692 28.6 173.425 28.6C168.158 28.6 164.358 28.7 162.025 28.9C161.625 32.9 161.425 40.2333 161.425 50.9H165.825C174.825 50.9 180.658 50.5667 183.325 49.9C183.658 51.7667 183.825 53.3333 183.825 54.6C183.825 55.8667 183.792 56.9 183.725 57.7ZM197.381 86.6C198.315 78.8 198.781 67.7 198.781 53.3C198.781 38.9 198.215 28.5 197.081 22.1C198.815 21.4333 200.548 21.1 202.281 21.1C204.015 21.1 205.815 21.1667 207.681 21.3C206.748 28.7 206.281 40.4 206.281 56.4C206.281 72.4 206.848 82.2 207.981 85.8C205.781 86.4667 203.748 86.8 201.881 86.8C200.015 86.8 198.515 86.7333 197.381 86.6ZM224.72 86.6C225.653 78.8 226.12 67.7 226.12 53.3C226.12 38.9 225.553 28.5 224.42 22.1C226.153 21.4333 227.62 21.1 228.82 21.1C230.086 21.1 231.653 21.1667 233.52 21.3C234.786 26.1 238.42 33.4 244.42 43.2C250.486 52.9333 256.786 62.3667 263.32 71.5C263.52 65.9 263.62 60.5 263.62 55.3C263.62 39.5667 263.053 28.5 261.92 22.1C263.653 21.4333 265.12 21.1 266.32 21.1C267.586 21.1 269.153 21.1667 271.02 21.3C270.086 28.7 269.62 40.4 269.62 56.4C269.62 72.4 270.186 82.2 271.32 85.8C269.32 86.4667 267.853 86.8 266.92 86.8C266.053 86.8 264.486 86.7333 262.22 86.6C261.753 84.5333 259.786 80.8 256.32 75.4C252.853 69.9333 248.52 63.4333 243.32 55.9C238.186 48.3667 234.486 42.7333 232.22 39C232.153 41.8667 232.12 46.2667 232.12 52.2C232.12 71 232.686 82.2 233.82 85.8C231.82 86.4667 230.353 86.8 229.42 86.8C228.553 86.8 226.986 86.7333 224.72 86.6ZM306.459 20.5C311.392 20.5 315.625 21.4333 319.159 23.3C322.692 25.1 325.425 27.6 327.359 30.8C330.959 37 332.759 44.5667 332.759 53.5C332.759 65.9 330.292 74.8667 325.359 80.4C323.425 82.4667 320.859 84.1667 317.659 85.5C314.459 86.8333 310.725 87.5 306.459 87.5C298.392 87.5 291.859 86.5667 286.859 84.7C287.792 76.9 288.259 66.3333 288.259 53C288.259 39.6 287.692 29.7 286.559 23.3C292.292 21.4333 298.925 20.5 306.459 20.5ZM306.459 80.4C318.259 80.4 324.159 71.4333 324.159 53.5C324.159 48.3667 323.625 43.8667 322.559 40C321.492 36.1333 319.592 32.9 316.859 30.3C314.125 27.7 310.825 26.4 306.959 26.4C303.159 26.4 299.659 27.0333 296.459 28.3C295.992 33.6333 295.759 41.8 295.759 52.8C295.759 63.7333 296.025 72.2333 296.559 78.3C299.692 79.7 302.992 80.4 306.459 80.4ZM353.301 78.4C355.634 78.6 359.667 78.7 365.401 78.7C371.134 78.7 375.767 78.4 379.301 77.8C379.834 79.5333 380.101 81.2333 380.101 82.9C380.101 84.5 379.967 85.9 379.701 87.1C378.434 86.7667 375.767 86.4333 371.701 86.1C367.634 85.8333 363.067 85.7 358.001 85.7C352.934 85.7 348.167 85.9333 343.701 86.4C344.634 77.2 345.101 66.0333 345.101 52.9C345.101 39.7667 344.467 29.2667 343.201 21.4C347.667 21.8667 352.467 22.1 357.601 22.1C362.734 22.1 367.301 21.9667 371.301 21.7C375.367 21.3667 378.001 21.0333 379.201 20.7C379.467 21.9 379.601 23.2333 379.601 24.7C379.601 26.1667 379.334 27.7667 378.801 29.5C375.267 28.9 370.701 28.6 365.101 28.6C359.501 28.6 355.534 28.7 353.201 28.9C352.801 32.7 352.601 39.5667 352.601 49.5C354.001 49.5667 357.367 49.6 362.701 49.6C368.034 49.6 372.367 49.2333 375.701 48.5C376.034 50.6333 376.201 52.4 376.201 53.8C376.201 55.1333 376.167 56.2333 376.101 57.1C372.967 56.5667 369.001 56.3 364.201 56.3C359.401 56.3 355.534 56.3667 352.601 56.5C352.601 65.2333 352.834 72.5333 353.301 78.4ZM407.056 51.1C408.99 52.9 411.29 53.8 413.956 53.8C416.69 53.8 418.89 53 420.556 51.4C423.223 48.8667 424.556 45.1 424.556 40.1C424.556 30.8333 420.156 26.2 411.356 26.2C408.556 26.2 405.423 26.8667 401.956 28.2C401.49 33.5333 401.256 43.5667 401.256 58.3C401.256 73.0333 401.823 82.2 402.956 85.8C400.756 86.4667 398.723 86.8 396.856 86.8C394.99 86.8 393.49 86.7333 392.356 86.6C393.29 78.8 393.756 67.9 393.756 53.9C393.756 39.9 393.19 29.7 392.056 23.3C397.656 21.4333 404.123 20.5 411.456 20.5C425.99 20.5 433.256 27.0333 433.256 40.1C433.256 45.0333 432.023 49.2667 429.556 52.8C427.09 56.3333 423.356 58.5667 418.356 59.5C425.423 70.7667 431.29 79.4333 435.956 85.5C433.69 86.6333 431.456 87.2 429.256 87.2C427.056 87.2 425.59 87.1667 424.856 87.1C421.323 79.6333 416.123 70.5 409.256 59.7C407.923 59.5 406.49 59.1333 404.956 58.6C404.956 56.9333 405.19 55.4 405.656 54C406.123 52.5333 406.59 51.5667 407.056 51.1Z" fill="#084436"/>
<defs>
<linearGradient id="paint0_linear" x1="489.773" y1="40.9562" x2="489.773" y2="58.5408" gradientUnits="userSpaceOnUse">
<stop stop-color="#FFC700"/>
<stop offset="1" stop-color="#FF4D00"/>
</linearGradient>
<linearGradient id="paint1_linear" x1="483.686" y1="23.9127" x2="483.686" y2="39.4683" gradientUnits="userSpaceOnUse">
<stop stop-color="#FFC700"/>
<stop offset="1" stop-color="#FF4D00"/>
</linearGradient>
<linearGradient id="paint2_linear" x1="495.86" y1="23.9127" x2="495.86" y2="39.4683" gradientUnits="userSpaceOnUse">
<stop stop-color="#FFC700"/>
<stop offset="1" stop-color="#FF4D00"/>
</linearGradient>
<linearGradient id="paint3_linear" x1="476.573" y1="36.7599" x2="476.573" y2="46.317" gradientUnits="userSpaceOnUse">
<stop stop-color="#FFC700"/>
<stop offset="1" stop-color="#FF4D00"/>
</linearGradient>
<linearGradient id="paint4_linear" x1="502.974" y1="36.7599" x2="502.974" y2="46.3169" gradientUnits="userSpaceOnUse">
<stop stop-color="#FFC700"/>
<stop offset="1" stop-color="#FF4D00"/>
</linearGradient>
<clipPath id="clip0">
<rect width="34.6281" height="34.6281" fill="white" transform="translate(472.459 23.9127)"/>
</clipPath>
</defs>
</svg>
