<svg width="516" height="107" viewBox="0 0 516 107" fill="none" xmlns="http://www.w3.org/2000/svg">
<path d="M439.317 81.5143L459.515 61.3166L469.683 71.4851L449.486 91.6826C449.062 92.1058 448.377 92.1058 447.953 91.6826L439.317 83.0465C438.894 82.6235 438.894 81.9377 439.317 81.5143Z" fill="#FFC700"/>
<path d="M458.294 62.3932L461.873 58.8143C462.303 58.385 462.998 58.385 463.427 58.8143L465.046 60.433L467.893 57.5866C460.119 47.1346 460.944 32.3036 470.429 22.8189C480.854 12.3937 497.756 12.3937 508.181 22.8189C518.606 33.2439 518.606 50.1461 508.181 60.5712C498.696 70.0558 483.865 70.8813 473.413 63.1073L470.567 65.9537L472.186 67.5726C472.615 68.0019 472.615 68.6973 472.186 69.1266L468.607 72.7056L467.734 73.5786L457.421 63.2662L458.294 62.3932ZM474.904 56.0961C482.862 64.0544 495.765 64.0544 503.724 56.0961C511.682 48.1379 511.682 35.2348 503.723 27.2766C495.765 19.3182 482.862 19.3182 474.904 27.2766C466.946 35.2348 466.945 48.1377 474.904 56.0961Z" fill="#00FF75"/>
<g clip-path="url(#clip0)">
<path d="M489.773 40.9562C483.67 40.9562 477.937 49.1837 477.937 54.1447C477.937 56.6098 480.76 58.5408 484.363 58.5408C485.718 58.5408 486.626 58.2413 487.428 57.977C488.161 57.7352 488.795 57.5263 489.773 57.5263C490.752 57.5263 491.385 57.7352 492.119 57.977C492.92 58.2413 493.829 58.5408 495.184 58.5408C498.787 58.5408 501.609 56.6098 501.609 54.1447C501.609 49.1837 495.876 40.9562 489.773 40.9562Z" fill="url(#paint0_linear)"/>
<path d="M483.686 23.9127C480.842 23.9127 478.614 27.3291 478.614 31.6905C478.614 36.0519 480.842 39.4683 483.686 39.4683C486.531 39.4683 488.759 36.0519 488.759 31.6905C488.759 27.3291 486.531 23.9127 483.686 23.9127Z" fill="url(#paint1_linear)"/>
<path d="M495.86 23.9127C493.016 23.9127 490.788 27.3291 490.788 31.6905C490.788 36.0519 493.016 39.4683 495.86 39.4683C498.705 39.4683 500.933 36.0519 500.933 31.6905C500.933 27.3291 498.705 23.9127 495.86 23.9127Z" fill="url(#paint2_linear)"/>
<path d="M479.787 39.6842C478.273 37.0848 475.765 36.1543 474.029 37.1513C472.276 38.1578 471.91 40.821 473.344 43.4041C474.785 46.0018 477.434 46.9079 479.102 45.9371C480.806 44.9446 481.289 42.2638 479.787 39.6842Z" fill="url(#paint3_linear)"/>
<path d="M505.517 37.1512C503.781 36.1542 501.273 37.0847 499.76 39.6842C498.258 42.2638 498.74 44.9445 500.445 45.937C502.113 46.9079 504.761 46.0018 506.203 43.404C507.636 40.8209 507.271 38.1578 505.517 37.1512Z" fill="url(#paint4_linear)"/>
</g>
<path d="M24.9 52.9C26.8333 54.8333 29.1333 55.8 31.8 55.8C34.5333 55.8 36.7333 54.9667 38.4 53.3C41.0667 50.5667 42.4 46.5 42.4 41.1C42.4 31.1667 38 26.2 29.2 26.2C26.4 26.2 23.2667 26.9333 19.8 28.4C19.3333 33.6667 19.1 43.6667 19.1 58.4C19.1 73.0667 19.6667 82.2 20.8 85.8C18.6 86.4667 16.5667 86.8 14.7 86.8C12.8333 86.8 11.3333 86.7333 10.2 86.6C11.1333 78.8 11.6 67.9 11.6 53.9C11.6 39.9 11.0333 29.7 9.9 23.3C15.5 21.4333 22.1 20.5 29.7 20.5C37.3 20.5 42.7667 22.3 46.1 25.9C49.4333 29.4333 51.1 34.4333 51.1 40.9C51.1 47.3 49.4 52.5 46 56.5C42.6667 60.5 37.5667 62.5 30.7 62.5C28.0333 62.5 25.4 62 22.8 61C22.8 59.2 23.0333 57.5333 23.5 56C23.9667 54.4667 24.4333 53.4333 24.9 52.9ZM69.125 78.4C71.4583 78.6 75.4917 78.7 81.225 78.7C86.9583 78.7 91.5917 78.4 95.125 77.8C95.6583 79.5333 95.925 81.2333 95.925 82.9C95.925 84.5 95.7917 85.9 95.525 87.1C94.2583 86.7667 91.5917 86.4333 87.525 86.1C83.4583 85.8333 78.8917 85.7 73.825 85.7C68.7583 85.7 63.9917 85.9333 59.525 86.4C60.4583 77.2 60.925 66.0333 60.925 52.9C60.925 39.7667 60.2917 29.2667 59.025 21.4C63.4917 21.8667 68.2917 22.1 73.425 22.1C78.5583 22.1 83.125 21.9667 87.125 21.7C91.1917 21.3667 93.825 21.0333 95.025 20.7C95.2917 21.9 95.425 23.2333 95.425 24.7C95.425 26.1667 95.1583 27.7667 94.625 29.5C91.0917 28.9 86.525 28.6 80.925 28.6C75.325 28.6 71.3583 28.7 69.025 28.9C68.625 32.7 68.425 39.5667 68.425 49.5C69.825 49.5667 73.1917 49.6 78.525 49.6C83.8583 49.6 88.1917 49.2333 91.525 48.5C91.8583 50.6333 92.025 52.4 92.025 53.8C92.025 55.1333 91.9917 56.2333 91.925 57.1C88.7917 56.5667 84.825 56.3 80.025 56.3C75.225 56.3 71.3583 56.3667 68.425 56.5C68.425 65.2333 68.6583 72.5333 69.125 78.4ZM125.98 28.6C125.647 33.8 125.48 43.7333 125.48 58.4C125.48 73.0667 126.047 82.2 127.18 85.8C124.98 86.4667 122.947 86.8 121.08 86.8C119.214 86.8 117.714 86.7333 116.58 86.6C117.514 78.8 117.98 68.6 117.98 56C117.98 43.3333 117.747 34.2 117.28 28.6C108.147 29 102.247 29.4667 99.5805 30C99.3138 29.0667 99.1805 27.8 99.1805 26.2C99.1805 24.6 99.4471 22.9333 99.9805 21.2C104.914 21.8 110.88 22.1 117.88 22.1C132.014 22.1 140.747 21.6333 144.08 20.7C144.347 21.9 144.48 23.2333 144.48 24.7C144.48 26.1667 144.214 27.7667 143.68 29.5C138.547 29.0333 132.647 28.7333 125.98 28.6ZM183.725 57.7C180.858 57.2333 176.725 57 171.325 57C165.925 57 162.625 57.0333 161.425 57.1C161.558 73.2333 162.125 82.8 163.125 85.8C160.925 86.4667 159.158 86.8 157.825 86.8C156.558 86.8 154.792 86.7333 152.525 86.6C153.458 78.8 153.925 67.9667 153.925 54.1C153.925 40.1667 153.292 29.2667 152.025 21.4C156.492 21.8667 161.125 22.1 165.925 22.1C170.725 22.1 175.125 21.9667 179.125 21.7C183.192 21.3667 185.825 21.0333 187.025 20.7C187.292 21.9 187.425 23.2333 187.425 24.7C187.425 26.1667 187.158 27.7667 186.625 29.5C183.092 28.9 178.692 28.6 173.425 28.6C168.158 28.6 164.358 28.7 162.025 28.9C161.625 32.9 161.425 40.2333 161.425 50.9H165.825C174.825 50.9 180.658 50.5667 183.325 49.9C183.658 51.7667 183.825 53.3333 183.825 54.6C183.825 55.8667 183.792 56.9 183.725 57.7ZM197.381 86.6C198.315 78.8 198.781 67.7 198.781 53.3C198.781 38.9 198.215 28.5 197.081 22.1C198.815 21.4333 200.548 21.1 202.281 21.1C204.015 21.1 205.815 21.1667 207.681 21.3C206.748 28.7 206.281 40.4 206.281 56.4C206.281 72.4 206.848 82.2 207.981 85.8C205.781 86.4667 203.748 86.8 201.881 86.8C200.015 86.8 198.515 86.7333 197.381 86.6ZM224.72 86.6C225.653 78.8 226.12 67.7 226.12 53.3C226.12 38.9 225.553 28.5 224.42 22.1C226.153 21.4333 227.62 21.1 228.82 21.1C230.086 21.1 231.653 21.1667 233.52 21.3C234.786 26.1 238.42 33.4 244.42 43.2C250.486 52.9333 256.786 62.3667 263.32 71.5C263.52 65.9 263.62 60.5 263.62 55.3C263.62 39.5667 263.053 28.5 261.92 22.1C263.653 21.4333 265.12 21.1 266.32 21.1C267.586 21.1 269.153 21.1667 271.02 21.3C270.086 28.7 269.62 40.4 269.62 56.4C269.62 72.4 270.186 82.2 271.32 85.8C269.32 86.4667 267.853 86.8 266.92 86.8C266.053 86.8 264.486 86.7333 262.22 86.6C261.753 84.5333 259.786 80.8 256.32 75.4C252.853 69.9333 248.52 63.4333 243.32 55.9C238.186 48.3667 234.486 42.7333 232.22 39C232.153 41.8667 232.12 46.2667 232.12 52.2C232.12 71 232.686 82.2 233.82 85.8C231.82 86.4667 230.353 86.8 229.42 86.8C228.553 86.8 226.986 86.7333 224.72 86.6ZM306.459 20.5C311.392 20.5 315.625 21.4333 319.159 23.3C322.692 25.1 325.425 27.6 327.359 30.8C330.959 37 332.759 44.5667 332.759 53.5C332.759 65.9 330.292 74.8667 325.359 80.4C323.425 82.4667 320.859 84.1667 317.659 85.5C314.459 86.8333 310.725 87.5 306.459 87.5C298.392 87.5 291.859 86.5667 286.859 84.7C287.792 76.9 288.259 66.3333 288.259 53C288.259 39.6 287.692 29.7 286.559 23.3C292.292 21.4333 298.925 20.5 306.459 20.5ZM306.459 80.4C318.259 80.4 324.159 71.4333 324.159 53.5C324.159 48.3667 323.625 43.8667 322.559 40C321.492 36.1333 319.592 32.9 316.859 30.3C314.125 27.7 310.825 26.4 306.959 26.4C303.159 26.4 299.659 27.0333 296.459 28.3C295.992 33.6333 295.759 41.8 295.759 52.8C295.759 63.7333 296.025 72.2333 296.559 78.3C299.692 79.7 302.992 80.4 306.459 80.4ZM353.301 78.4C355.634 78.6 359.667 78.7 365.401 78.7C371.134 78.7 375.767 78.4 379.301 77.8C379.834 79.5333 380.101 81.2333 380.101 82.9C380.101 84.5 379.967 85.9 379.701 87.1C378.434 86.7667 375.767 86.4333 371.701 86.1C367.634 85.8333 363.067 85.7 358.001 85.7C352.934 85.7 348.167 85.9333 343.701 86.4C344.634 77.2 345.101 66.0333 345.101 52.9C345.101 39.7667 344.467 29.2667 343.201 21.4C347.667 21.8667 352.467 22.1 357.601 22.1C362.734 22.1 367.301 21.9667 371.301 21.7C375.367 21.3667 378.001 21.0333 379.201 20.7C379.467 21.9 379.601 23.2333 379.601 24.7C379.601 26.1667 379.334 27.7667 378.801 29.5C375.267 28.9 370.701 28.6 365.101 28.6C359.501 28.6 355.534 28.7 353.201 28.9C352.801 32.7 352.601 39.5667 352.601 49.5C354.001 49.5667 357.367 49.6 362.701 49.6C368.034 49.6 372.367 49.2333 375.701 48.5C376.034 50.6333 376.201 52.4 376.201 53.8C376.201 55.1333 376.167 56.2333 376.101 57.1C372.967 56.5667 369.001 56.3 364.201 56.3C359.401 56.3 355.534 56.3667 352.601 56.5C352.601 65.2333 352.834 72.5333 353.301 78.4ZM407.056 51.1C408.99 52.9 411.29 53.8 413.956 53.8C416.69 53.8 418.89 53 420.556 51.4C423.223 48.8667 424.556 45.1 424.556 40.1C424.556 30.8333 420.156 26.2 411.356 26.2C408.556 26.2 405.423 26.8667 401.956 28.2C401.49 33.5333 401.256 43.5667 401.256 58.3C401.256 73.0333 401.823 82.2 402.956 85.8C400.756 86.4667 398.723 86.8 396.856 86.8C394.99 86.8 393.49 86.7333 392.356 86.6C393.29 78.8 393.756 67.9 393.756 53.9C393.756 39.9 393.19 29.7 392.056 23.3C397.656 21.4333 404.123 20.5 411.456 20.5C425.99 20.5 433.256 27.0333 433.256 40.1C433.256 45.0333 432.023 49.2667 429.556 52.8C427.09 56.3333 423.356 58.5667 418.356 59.5C425.423 70.7667 431.29 79.4333 435.956 85.5C433.69 86.6333 431.456 87.2 429.256 87.2C427.056 87.2 425.59 87.1667 424.856 87.1C421.323 79.6333 416.123 70.5 409.256 59.7C407.923 59.5 406.49 59.1333 404.956 58.6C404.956 56.9333 405.19 55.4 405.656 54C406.123 52.5333 406.59 51.5667 407.056 51.1Z" fill="white"/>
<path d="M24.9 52.9L25.6071 52.1929L24.8513 51.4371L24.1474 52.2415L24.9 52.9ZM38.4 53.3L39.1072 54.0072L39.1158 53.9983L38.4 53.3ZM19.8 28.4L19.4104 27.479L18.8569 27.7132L18.8039 28.3117L19.8 28.4ZM20.8 85.8L21.09 86.757L22.0574 86.4639L21.7538 85.4997L20.8 85.8ZM10.2 86.6L9.20708 86.4812L9.08804 87.4761L10.0832 87.5932L10.2 86.6ZM9.9 23.3L9.58377 22.3513L8.76479 22.6243L8.91532 23.4744L9.9 23.3ZM46.1 25.9L45.3662 26.5794L45.3726 26.5862L46.1 25.9ZM46 56.5L45.238 55.8523L45.2318 55.8598L46 56.5ZM22.8 61H21.8V61.6868L22.441 61.9333L22.8 61ZM24.1929 53.6071C26.3085 55.7227 28.8607 56.8 31.8 56.8V54.8C29.406 54.8 27.3582 53.944 25.6071 52.1929L24.1929 53.6071ZM31.8 56.8C34.7527 56.8 37.2228 55.8914 39.1071 54.0071L37.6929 52.5929C36.2438 54.0419 34.3139 54.8 31.8 54.8V56.8ZM39.1158 53.9983C42.0287 51.0126 43.4 46.6521 43.4 41.1H41.4C41.4 46.3479 40.1047 50.1207 37.6842 52.6017L39.1158 53.9983ZM43.4 41.1C43.4 36.007 42.2747 32.0005 39.8485 29.2619C37.4019 26.5002 33.7877 25.2 29.2 25.2V27.2C33.4123 27.2 36.3981 28.3831 38.3515 30.5881C40.3254 32.8162 41.4 36.2597 41.4 41.1H43.4ZM29.2 25.2C26.2286 25.2 22.9603 25.9771 19.4104 27.479L20.1896 29.321C23.5731 27.8895 26.5714 27.2 29.2 27.2V25.2ZM18.8039 28.3117C18.3328 33.6289 18.1 43.6716 18.1 58.4H20.1C20.1 43.6617 20.3339 33.7044 20.7961 28.4883L18.8039 28.3117ZM18.1 58.4C18.1 65.7433 18.2418 71.7162 18.5269 76.3119C18.8102 80.8774 19.2389 84.1714 19.8462 86.1003L21.7538 85.4997C21.2277 83.8286 20.8065 80.7559 20.5231 76.1881C20.2416 71.6505 20.1 65.7234 20.1 58.4H18.1ZM20.51 84.843C18.3832 85.4875 16.4488 85.8 14.7 85.8V87.8C16.6846 87.8 18.8168 87.4459 21.09 86.757L20.51 84.843ZM14.7 85.8C12.8512 85.8 11.3949 85.7337 10.3168 85.6068L10.0832 87.5932C11.2718 87.733 12.8154 87.8 14.7 87.8V85.8ZM11.1929 86.7188C12.1333 78.8603 12.6 67.9142 12.6 53.9H10.6C10.6 67.8858 10.1334 78.7397 9.20708 86.4812L11.1929 86.7188ZM12.6 53.9C12.6 39.8924 12.0343 29.6178 10.8847 23.1256L8.91532 23.4744C10.0323 29.7822 10.6 39.9076 10.6 53.9H12.6ZM10.2162 24.2487C15.6898 22.4242 22.1782 21.5 29.7 21.5V19.5C22.0218 19.5 15.3102 20.4425 9.58377 22.3513L10.2162 24.2487ZM29.7 21.5C37.1724 21.5 42.3048 23.2731 45.3662 26.5794L46.8338 25.2206C43.2285 21.3269 37.4276 19.5 29.7 19.5V21.5ZM45.3726 26.5862C48.4793 29.8793 50.1 34.6019 50.1 40.9H52.1C52.1 34.2648 50.3874 28.9873 46.8274 25.2138L45.3726 26.5862ZM50.1 40.9C50.1 47.1168 48.4527 52.0705 45.2381 55.8523L46.7619 57.1476C50.3473 52.9295 52.1 47.4832 52.1 40.9H50.1ZM45.2318 55.8598C42.1448 59.5641 37.371 61.5 30.7 61.5V63.5C37.7623 63.5 43.1885 61.4359 46.7682 57.1402L45.2318 55.8598ZM30.7 61.5C28.1615 61.5 25.6496 61.0246 23.159 60.0667L22.441 61.9333C25.1504 62.9754 27.9052 63.5 30.7 63.5V61.5ZM23.8 61C23.8 59.2867 24.022 57.7193 24.4567 56.2912L22.5433 55.7088C22.0446 57.3474 21.8 59.1133 21.8 61H23.8ZM24.4567 56.2912C24.9213 54.7644 25.3392 53.9166 25.6526 53.5585L24.1474 52.2415C23.5274 52.95 23.012 54.1689 22.5433 55.7088L24.4567 56.2912ZM69.125 78.4L68.1281 78.4793L68.1953 79.324L69.0396 79.3963L69.125 78.4ZM95.125 77.8L96.0808 77.5059L95.8227 76.6672L94.9576 76.8141L95.125 77.8ZM95.525 87.1L95.2705 88.0671L96.2757 88.3316L96.5012 87.3169L95.525 87.1ZM87.525 86.1L87.6067 85.1033L87.5986 85.1027L87.5904 85.1021L87.525 86.1ZM59.525 86.4L58.5301 86.2991L58.406 87.5224L59.6289 87.3946L59.525 86.4ZM59.025 21.4L59.1289 20.4054L57.8301 20.2697L58.0377 21.559L59.025 21.4ZM87.125 21.7L87.1915 22.6978L87.1991 22.6973L87.2067 22.6967L87.125 21.7ZM95.025 20.7L96.0012 20.4831L95.7726 19.4545L94.7574 19.7365L95.025 20.7ZM94.625 29.5L94.4576 30.4859L95.3227 30.6328L95.5808 29.7941L94.625 29.5ZM69.025 28.9L68.9396 27.9036L68.1169 27.9742L68.0305 28.7953L69.025 28.9ZM68.425 49.5H67.425V50.4535L68.3774 50.4989L68.425 49.5ZM91.525 48.5L92.513 48.3456L92.3488 47.2948L91.3101 47.5234L91.525 48.5ZM91.925 57.1L91.7572 58.0858L92.838 58.2698L92.9221 57.1767L91.925 57.1ZM68.425 56.5L68.3796 55.501L67.425 55.5444V56.5H68.425ZM69.0396 79.3963C71.4202 79.6004 75.4922 79.7 81.225 79.7V77.7C75.4912 77.7 71.4965 77.5996 69.2104 77.4037L69.0396 79.3963ZM81.225 79.7C86.9854 79.7 91.6811 79.3991 95.2924 78.7859L94.9576 76.8141C91.5023 77.4009 86.9313 77.7 81.225 77.7V79.7ZM94.1692 78.0941C94.6758 79.7405 94.925 81.3414 94.925 82.9H96.925C96.925 81.1253 96.6409 79.3262 96.0808 77.5059L94.1692 78.0941ZM94.925 82.9C94.925 84.4476 94.7957 85.7719 94.5488 86.8831L96.5012 87.3169C96.7876 86.0281 96.925 84.5524 96.925 82.9H94.925ZM95.7795 86.1329C94.4127 85.7733 91.656 85.4352 87.6067 85.1033L87.4433 87.0967C91.5274 87.4314 94.1039 87.7601 95.2705 88.0671L95.7795 86.1329ZM87.5904 85.1021C83.4975 84.8338 78.9085 84.7 73.825 84.7V86.7C78.8748 86.7 83.4192 86.8329 87.4596 87.0979L87.5904 85.1021ZM73.825 84.7C68.7279 84.7 63.9263 84.9347 59.4211 85.4054L59.6289 87.3946C64.057 86.9319 68.7887 86.7 73.825 86.7V84.7ZM60.5199 86.5009C61.4577 77.2567 61.925 66.0543 61.925 52.9H59.925C59.925 66.0124 59.459 77.1433 58.5301 86.2991L60.5199 86.5009ZM61.925 52.9C61.925 39.7428 61.2911 29.183 60.0123 21.241L58.0377 21.559C59.2923 29.3504 59.925 39.7905 59.925 52.9H61.925ZM58.9211 22.3946C63.4267 22.8653 68.2618 23.1 73.425 23.1V21.1C68.3216 21.1 63.5566 20.868 59.1289 20.4054L58.9211 22.3946ZM73.425 23.1C78.5747 23.1 83.1643 22.9663 87.1915 22.6978L87.0585 20.7022C83.0857 20.9671 78.5419 21.1 73.425 21.1V23.1ZM87.2067 22.6967C91.251 22.3652 93.9841 22.027 95.2926 21.6635L94.7574 19.7365C93.6659 20.0397 91.1323 20.3682 87.0433 20.7033L87.2067 22.6967ZM94.0488 20.9169C94.297 22.0336 94.425 23.2928 94.425 24.7H96.425C96.425 23.1739 96.2864 21.7664 96.0012 20.4831L94.0488 20.9169ZM94.425 24.7C94.425 26.0467 94.1799 27.5463 93.6692 29.2059L95.5808 29.7941C96.1368 27.987 96.425 26.2867 96.425 24.7H94.425ZM94.7924 28.5141C91.182 27.901 86.5536 27.6 80.925 27.6V29.6C86.4964 29.6 91.0013 29.899 94.4576 30.4859L94.7924 28.5141ZM80.925 27.6C75.3247 27.6 71.3199 27.6996 68.9396 27.9036L69.1104 29.8963C71.3968 29.7004 75.3253 29.6 80.925 29.6V27.6ZM68.0305 28.7953C67.6243 32.6542 67.425 39.5698 67.425 49.5H69.425C69.425 39.5636 69.6257 32.7458 70.0195 29.0047L68.0305 28.7953ZM68.3774 50.4989C69.8064 50.5669 73.1997 50.6 78.525 50.6V48.6C73.1836 48.6 69.8436 48.5664 68.4726 48.5011L68.3774 50.4989ZM78.525 50.6C83.8951 50.6 88.3081 50.2316 91.7399 49.4766L91.3101 47.5234C88.0752 48.235 83.8216 48.6 78.525 48.6V50.6ZM90.537 48.6544C90.8661 50.7609 91.025 52.4715 91.025 53.8H93.025C93.025 52.3285 92.8505 50.5058 92.513 48.3456L90.537 48.6544ZM91.025 53.8C91.025 55.1197 90.9919 56.1918 90.9279 57.0233L92.9221 57.1767C92.9914 56.2749 93.025 55.147 93.025 53.8H91.025ZM92.0928 56.1142C88.8837 55.5679 84.8559 55.3 80.025 55.3V57.3C84.7941 57.3 88.6997 57.5654 91.7572 58.0858L92.0928 56.1142ZM80.025 55.3C75.218 55.3 71.3345 55.3667 68.3796 55.501L68.4704 57.499C71.3822 57.3666 75.232 57.3 80.025 57.3V55.3ZM67.425 56.5C67.425 65.2485 67.6586 72.577 68.1281 78.4793L70.1219 78.3207C69.658 72.4897 69.425 65.2182 69.425 56.5H67.425ZM125.98 28.6L126 27.6002L125.044 27.5811L124.983 28.536L125.98 28.6ZM127.18 85.8L127.47 86.757L128.438 86.4639L128.134 85.4997L127.18 85.8ZM116.58 86.6L115.588 86.4812L115.469 87.4761L116.464 87.5932L116.58 86.6ZM117.28 28.6L118.277 28.517L118.197 27.5589L117.237 27.601L117.28 28.6ZM99.5805 30L98.6189 30.2747L98.8723 31.1614L99.7766 30.9806L99.5805 30ZM99.9805 21.2L100.101 20.2073L99.2707 20.1063L99.0247 20.9059L99.9805 21.2ZM144.08 20.7L145.057 20.4831L144.828 19.4523L143.811 19.737L144.08 20.7ZM143.68 29.5L143.59 30.4959L144.398 30.5693L144.636 29.7941L143.68 29.5ZM124.983 28.536C124.647 33.7728 124.48 43.7371 124.48 58.4H126.48C126.48 43.7295 126.647 33.8272 126.978 28.664L124.983 28.536ZM124.48 58.4C124.48 65.7433 124.622 71.7162 124.907 76.3119C125.191 80.8774 125.619 84.1714 126.227 86.1003L128.134 85.4997C127.608 83.8286 127.187 80.7559 126.904 76.1881C126.622 71.6505 126.48 65.7234 126.48 58.4H124.48ZM126.89 84.843C124.764 85.4875 122.829 85.8 121.08 85.8V87.8C123.065 87.8 125.197 87.4459 127.47 86.757L126.89 84.843ZM121.08 85.8C119.232 85.8 117.775 85.7337 116.697 85.6068L116.464 87.5932C117.652 87.733 119.196 87.8 121.08 87.8V85.8ZM117.573 86.7188C118.513 78.8632 118.98 68.6191 118.98 56H116.98C116.98 68.5809 116.514 78.7368 115.588 86.4812L117.573 86.7188ZM118.98 56C118.98 43.3311 118.747 34.1618 118.277 28.517L116.284 28.683C116.747 34.2382 116.98 43.3355 116.98 56H118.98ZM117.237 27.601C108.123 28.0001 102.141 28.4681 99.3844 29.0194L99.7766 30.9806C102.353 30.4653 108.171 29.9999 117.324 29.599L117.237 27.601ZM100.542 29.7253C100.312 28.9202 100.18 27.7589 100.18 26.2H98.1805C98.1805 27.8411 98.3156 29.2131 98.6189 30.2747L100.542 29.7253ZM100.18 26.2C100.18 24.712 100.428 23.1446 100.936 21.4941L99.0247 20.9059C98.4659 22.722 98.1805 24.488 98.1805 26.2H100.18ZM99.8597 22.1927C104.846 22.7991 110.855 23.1 117.88 23.1V21.1C110.906 21.1 104.982 20.8009 100.101 20.2073L99.8597 22.1927ZM117.88 23.1C124.956 23.1 130.692 22.9832 135.084 22.7486C139.446 22.5155 142.565 22.1629 144.35 21.663L143.811 19.737C142.263 20.1704 139.348 20.5178 134.977 20.7514C130.636 20.9834 124.939 21.1 117.88 21.1V23.1ZM143.104 20.9169C143.352 22.0336 143.48 23.2928 143.48 24.7H145.48C145.48 23.1739 145.342 21.7664 145.057 20.4831L143.104 20.9169ZM143.48 24.7C143.48 26.0467 143.235 27.5463 142.725 29.2059L144.636 29.7941C145.192 27.987 145.48 26.2867 145.48 24.7H143.48ZM143.771 28.5041C138.609 28.0348 132.684 27.7339 126 27.6002L125.96 29.5998C132.61 29.7328 138.486 30.0319 143.59 30.4959L143.771 28.5041ZM183.725 57.7L183.564 58.687L184.632 58.8608L184.722 57.783L183.725 57.7ZM161.425 57.1L161.37 56.1015L160.417 56.1544L160.425 57.1083L161.425 57.1ZM163.125 85.8L163.415 86.757L164.399 86.4589L164.074 85.4838L163.125 85.8ZM152.525 86.6L151.532 86.4812L151.406 87.5359L152.466 87.5983L152.525 86.6ZM152.025 21.4L152.129 20.4054L150.83 20.2697L151.038 21.559L152.025 21.4ZM179.125 21.7L179.192 22.6978L179.199 22.6973L179.207 22.6967L179.125 21.7ZM187.025 20.7L188.001 20.4831L187.773 19.4545L186.757 19.7365L187.025 20.7ZM186.625 29.5L186.458 30.4859L187.323 30.6328L187.581 29.7941L186.625 29.5ZM162.025 28.9L161.94 27.9036L161.113 27.9745L161.03 28.8005L162.025 28.9ZM161.425 50.9H160.425V51.9H161.425V50.9ZM183.325 49.9L184.309 49.7242L184.121 48.6702L183.082 48.9299L183.325 49.9ZM183.886 56.713C180.939 56.2332 176.741 56 171.325 56V58C176.709 58 180.778 58.2334 183.564 58.687L183.886 56.713ZM171.325 56C165.938 56 162.604 56.033 161.37 56.1015L161.48 58.0985C162.646 58.0337 165.912 58 171.325 58V56ZM160.425 57.1083C160.492 65.1821 160.667 71.6263 160.952 76.4341C161.234 81.1934 161.627 84.4697 162.176 86.1162L164.074 85.4838C163.623 84.1303 163.233 81.1232 162.948 76.3159C162.666 71.557 162.492 65.1512 162.425 57.0917L160.425 57.1083ZM162.835 84.843C160.672 85.4986 159.014 85.8 157.825 85.8V87.8C159.303 87.8 161.178 87.4348 163.415 86.757L162.835 84.843ZM157.825 85.8C156.587 85.8 154.844 85.7347 152.584 85.6017L152.466 87.5983C154.74 87.732 156.529 87.8 157.825 87.8V85.8ZM153.518 86.7188C154.458 78.8605 154.925 67.9813 154.925 54.1H152.925C152.925 67.952 152.458 78.7395 151.532 86.4812L153.518 86.7188ZM154.925 54.1C154.925 40.1465 154.291 29.1851 153.012 21.241L151.038 21.559C152.292 29.3482 152.925 40.1868 152.925 54.1H154.925ZM151.921 22.3946C156.425 22.8651 161.093 23.1 165.925 23.1V21.1C161.157 21.1 156.559 20.8682 152.129 20.4054L151.921 22.3946ZM165.925 23.1C170.743 23.1 175.166 22.9662 179.192 22.6978L179.058 20.7022C175.084 20.9671 170.707 21.1 165.925 21.1V23.1ZM179.207 22.6967C183.251 22.3652 185.984 22.027 187.293 21.6635L186.757 19.7365C185.666 20.0397 183.132 20.3682 179.043 20.7033L179.207 22.6967ZM186.049 20.9169C186.297 22.0336 186.425 23.2928 186.425 24.7H188.425C188.425 23.1739 188.286 21.7664 188.001 20.4831L186.049 20.9169ZM186.425 24.7C186.425 26.0467 186.18 27.5463 185.669 29.2059L187.581 29.7941C188.137 27.987 188.425 26.2867 188.425 24.7H186.425ZM186.792 28.5141C183.185 27.9015 178.724 27.6 173.425 27.6V29.6C178.659 29.6 182.999 29.8985 186.458 30.4859L186.792 28.5141ZM173.425 27.6C168.156 27.6 164.319 27.6997 161.94 27.9036L162.11 29.8963C164.398 29.7003 168.161 29.6 173.425 29.6V27.6ZM161.03 28.8005C160.624 32.8568 160.425 40.237 160.425 50.9H162.425C162.425 40.2296 162.626 32.9432 163.02 28.9995L161.03 28.8005ZM161.425 51.9H165.825V49.9H161.425V51.9ZM165.825 51.9C174.796 51.9 180.759 51.5723 183.568 50.8701L183.082 48.9299C180.558 49.5611 174.854 49.9 165.825 49.9V51.9ZM182.341 50.0758C182.668 51.91 182.825 53.4135 182.825 54.6H184.825C184.825 53.2531 184.649 51.6234 184.309 49.7242L182.341 50.0758ZM182.825 54.6C182.825 55.8528 182.792 56.8556 182.728 57.617L184.722 57.783C184.791 56.9444 184.825 55.8805 184.825 54.6H182.825ZM197.381 86.6L196.388 86.4812L196.269 87.4761L197.264 87.5932L197.381 86.6ZM197.081 22.1L196.722 21.1666L195.953 21.4626L196.097 22.2744L197.081 22.1ZM207.681 21.3L208.673 21.4251L208.805 20.3778L207.752 20.3025L207.681 21.3ZM207.981 85.8L208.271 86.757L209.239 86.4639L208.935 85.4997L207.981 85.8ZM198.374 86.7188C199.315 78.8596 199.781 67.7129 199.781 53.3H197.781C197.781 67.6871 197.315 78.7404 196.388 86.4812L198.374 86.7188ZM199.781 53.3C199.781 38.8944 199.216 28.4187 198.066 21.9256L196.097 22.2744C197.213 28.5813 197.781 38.9056 197.781 53.3H199.781ZM197.44 23.0333C199.067 22.4076 200.679 22.1 202.281 22.1V20.1C200.417 20.1 198.562 20.4591 196.722 21.1666L197.44 23.0333ZM202.281 22.1C203.989 22.1 205.765 22.1657 207.61 22.2975L207.752 20.3025C205.864 20.1676 204.04 20.1 202.281 20.1V22.1ZM206.689 21.1749C205.747 28.6412 205.281 40.3943 205.281 56.4H207.281C207.281 40.4057 207.748 28.7588 208.673 21.4251L206.689 21.1749ZM205.281 56.4C205.281 64.4089 205.423 70.8804 205.708 75.8077C205.991 80.6997 206.419 84.1666 207.027 86.1003L208.935 85.4997C208.411 83.8334 207.988 80.6003 207.705 75.6923C207.423 70.8196 207.281 64.3911 207.281 56.4H205.281ZM207.691 84.843C205.564 85.4875 203.63 85.8 201.881 85.8V87.8C203.866 87.8 205.998 87.4459 208.271 86.757L207.691 84.843ZM201.881 85.8C200.032 85.8 198.576 85.7337 197.498 85.6068L197.264 87.5932C198.453 87.733 199.997 87.8 201.881 87.8V85.8ZM224.72 86.6L223.727 86.4812L223.6 87.5359L224.661 87.5983L224.72 86.6ZM224.42 22.1L224.061 21.1666L223.291 21.4626L223.435 22.2744L224.42 22.1ZM233.52 21.3L234.486 21.0448L234.304 20.3535L233.591 20.3025L233.52 21.3ZM244.42 43.2L243.567 43.7222L243.571 43.729L244.42 43.2ZM263.32 71.5L262.506 72.0818L264.214 74.4694L264.319 71.5357L263.32 71.5ZM261.92 22.1L261.561 21.1666L260.791 21.4626L260.935 22.2744L261.92 22.1ZM271.02 21.3L272.012 21.4251L272.144 20.3778L271.091 20.3025L271.02 21.3ZM271.32 85.8L271.636 86.7487L272.569 86.4377L272.273 85.4997L271.32 85.8ZM262.22 86.6L261.244 86.8203L261.41 87.5541L262.161 87.5983L262.22 86.6ZM256.32 75.4L255.475 75.9355L255.478 75.9402L256.32 75.4ZM243.32 55.9L242.493 56.4631L242.497 56.4681L243.32 55.9ZM232.22 39L233.074 38.481L231.299 35.5575L231.22 38.9767L232.22 39ZM233.82 85.8L234.136 86.7487L235.069 86.4377L234.773 85.4997L233.82 85.8ZM225.712 86.7188C226.653 78.8596 227.12 67.7129 227.12 53.3H225.12C225.12 67.6871 224.653 78.7404 223.727 86.4812L225.712 86.7188ZM227.12 53.3C227.12 38.8944 226.554 28.4187 225.404 21.9256L223.435 22.2744C224.552 28.5813 225.12 38.9056 225.12 53.3H227.12ZM224.779 23.0333C226.453 22.3892 227.791 22.1 228.82 22.1V20.1C227.449 20.1 225.853 20.4774 224.061 21.1666L224.779 23.0333ZM228.82 22.1C230.054 22.1 231.595 22.1651 233.448 22.2975L233.591 20.3025C231.71 20.1682 230.118 20.1 228.82 20.1V22.1ZM232.553 21.5552C233.86 26.5099 237.565 33.9192 243.567 43.7222L245.272 42.6778C239.274 32.8808 235.712 25.6901 234.486 21.0448L232.553 21.5552ZM243.571 43.729C249.649 53.4799 255.96 62.9309 262.506 72.0818L264.133 70.9182C257.612 61.8025 251.324 52.3868 245.268 42.671L243.571 43.729ZM264.319 71.5357C264.519 65.9247 264.62 60.5128 264.62 55.3H262.62C262.62 60.4872 262.52 65.8753 262.32 71.4643L264.319 71.5357ZM264.62 55.3C264.62 39.5671 264.054 28.4213 262.904 21.9256L260.935 22.2744C262.051 28.5787 262.62 39.5662 262.62 55.3H264.62ZM262.279 23.0333C263.953 22.3892 265.291 22.1 266.32 22.1V20.1C264.949 20.1 263.353 20.4774 261.561 21.1666L262.279 23.0333ZM266.32 22.1C267.554 22.1 269.095 22.1651 270.948 22.2975L271.091 20.3025C269.21 20.1682 267.618 20.1 266.32 20.1V22.1ZM270.027 21.1749C269.086 28.6412 268.62 40.3943 268.62 56.4H270.62C270.62 40.4057 271.087 28.7588 272.012 21.4251L270.027 21.1749ZM268.62 56.4C268.62 64.4089 268.761 70.8804 269.046 75.8077C269.329 80.6997 269.757 84.1666 270.366 86.1003L272.273 85.4997C271.749 83.8334 271.327 80.6003 271.043 75.6923C270.761 70.8196 270.62 64.3911 270.62 56.4H268.62ZM271.003 84.8513C269.01 85.5159 267.677 85.8 266.92 85.8V87.8C268.029 87.8 269.629 87.4175 271.636 86.7487L271.003 84.8513ZM266.92 85.8C266.086 85.8 264.547 85.7352 262.278 85.6017L262.161 87.5983C264.426 87.7315 266.02 87.8 266.92 87.8V85.8ZM263.195 86.3797C262.932 85.2129 262.272 83.6675 261.279 81.7839C260.278 79.8825 258.903 77.5729 257.161 74.8598L255.478 75.9402C257.203 78.6271 258.545 80.8841 259.51 82.7161C260.484 84.5658 261.041 85.9204 261.244 86.8203L263.195 86.3797ZM257.164 74.8645C253.688 69.3834 249.347 62.872 244.143 55.3319L242.497 56.4681C247.692 63.9947 252.018 70.4833 255.475 75.9355L257.164 74.8645ZM244.146 55.3369C239.014 47.806 235.327 42.1907 233.074 38.481L231.365 39.519C233.646 43.2759 237.358 48.9273 242.493 56.4631L244.146 55.3369ZM231.22 38.9767C231.153 41.8556 231.12 46.2653 231.12 52.2H233.12C233.12 46.2681 233.153 41.8777 233.219 39.0232L231.22 38.9767ZM231.12 52.2C231.12 61.6073 231.261 69.1263 231.546 74.7505C231.828 80.3292 232.254 84.1582 232.866 86.1003L234.773 85.4997C234.251 83.8418 233.828 80.2708 233.543 74.6495C233.261 69.0737 233.12 61.5927 233.12 52.2H231.12ZM233.503 84.8513C231.51 85.5159 230.177 85.8 229.42 85.8V87.8C230.529 87.8 232.129 87.4175 234.136 86.7487L233.503 84.8513ZM229.42 85.8C228.586 85.8 227.047 85.7352 224.778 85.6017L224.661 87.5983C226.926 87.7315 228.52 87.8 229.42 87.8V85.8ZM319.159 23.3L318.691 24.1842L318.698 24.1877L318.705 24.191L319.159 23.3ZM327.359 30.8L328.223 30.2979L328.219 30.2903L328.215 30.2829L327.359 30.8ZM325.359 80.4L326.089 81.0832L326.097 81.0744L326.105 81.0655L325.359 80.4ZM317.659 85.5L317.274 84.5769L317.659 85.5ZM286.859 84.7L285.866 84.5812L285.772 85.3619L286.509 85.6368L286.859 84.7ZM286.559 23.3L286.249 22.3491L285.422 22.6183L285.574 23.4744L286.559 23.3ZM322.559 40L321.595 40.2659L321.595 40.2659L322.559 40ZM316.859 30.3L317.548 29.5754L317.548 29.5754L316.859 30.3ZM296.459 28.3L296.091 27.3702L295.516 27.5975L295.462 28.2128L296.459 28.3ZM296.559 78.3L295.562 78.3876L295.614 78.9732L296.151 79.213L296.559 78.3ZM306.459 21.5C311.267 21.5 315.332 22.4094 318.691 24.1842L319.626 22.4158C315.918 20.4573 311.517 19.5 306.459 19.5V21.5ZM318.705 24.191C322.082 25.9117 324.672 28.2866 326.503 31.3171L328.215 30.2829C326.179 26.9134 323.302 24.2883 319.613 22.409L318.705 24.191ZM326.494 31.3021C329.986 37.3163 331.759 44.7001 331.759 53.5H333.759C333.759 44.4332 331.931 36.6837 328.223 30.2979L326.494 31.3021ZM331.759 53.5C331.759 65.8079 329.303 74.4733 324.612 79.7345L326.105 81.0655C331.281 75.26 333.759 65.9921 333.759 53.5H331.759ZM324.628 79.7168C322.811 81.6594 320.372 83.2862 317.274 84.5769L318.043 86.4231C321.345 85.0472 324.039 83.274 326.089 81.0832L324.628 79.7168ZM317.274 84.5769C314.22 85.8492 310.623 86.5 306.459 86.5V88.5C310.828 88.5 314.697 87.8174 318.043 86.4231L317.274 84.5769ZM306.459 86.5C298.456 86.5 292.055 85.5724 287.208 83.7632L286.509 85.6368C291.663 87.5609 298.327 88.5 306.459 88.5V86.5ZM287.852 84.8188C288.792 76.9616 289.259 66.3498 289.259 53H287.259C287.259 66.3169 286.792 76.8384 285.866 84.5812L287.852 84.8188ZM289.259 53C289.259 39.5894 288.693 29.6164 287.543 23.1256L285.574 23.4744C286.691 29.7836 287.259 39.6106 287.259 53H289.259ZM286.868 24.2509C292.48 22.4237 299.005 21.5 306.459 21.5V19.5C298.845 19.5 292.104 20.443 286.249 22.3491L286.868 24.2509ZM306.459 81.4C312.656 81.4 317.413 79.0206 320.569 74.2247C323.677 69.5019 325.159 62.5446 325.159 53.5H323.159C323.159 62.3888 321.691 68.8815 318.898 73.1253C316.154 77.2961 312.062 79.4 306.459 79.4V81.4ZM325.159 53.5C325.159 48.3005 324.619 43.7076 323.523 39.7341L321.595 40.2659C322.632 44.0257 323.159 48.4328 323.159 53.5H325.159ZM323.523 39.7341C322.411 35.7039 320.421 32.3085 317.548 29.5754L316.169 31.0246C318.763 33.4915 320.573 36.5627 321.595 40.2659L323.523 39.7341ZM317.548 29.5754C314.623 26.7938 311.075 25.4 306.959 25.4V27.4C310.576 27.4 313.627 28.6062 316.169 31.0246L317.548 29.5754ZM306.959 25.4C303.046 25.4 299.419 26.0525 296.091 27.3702L296.827 29.2298C299.898 28.0141 303.271 27.4 306.959 27.4V25.4ZM295.462 28.2128C294.992 33.5917 294.759 41.7945 294.759 52.8H296.759C296.759 41.8055 296.992 33.6749 297.455 28.3872L295.462 28.2128ZM294.759 52.8C294.759 63.7435 295.025 72.2776 295.562 78.3876L297.555 78.2124C297.025 72.1891 296.759 63.7231 296.759 52.8H294.759ZM296.151 79.213C299.414 80.671 302.853 81.4 306.459 81.4V79.4C303.131 79.4 299.97 78.729 296.967 77.387L296.151 79.213ZM353.301 78.4L352.304 78.4793L352.371 79.324L353.215 79.3963L353.301 78.4ZM379.301 77.8L380.257 77.5059L379.998 76.6672L379.133 76.8141L379.301 77.8ZM379.701 87.1L379.446 88.0671L380.451 88.3316L380.677 87.3169L379.701 87.1ZM371.701 86.1L371.782 85.1033L371.774 85.1027L371.766 85.1021L371.701 86.1ZM343.701 86.4L342.706 86.2991L342.582 87.5224L343.805 87.3946L343.701 86.4ZM343.201 21.4L343.305 20.4054L342.006 20.2697L342.213 21.559L343.201 21.4ZM371.301 21.7L371.367 22.6978L371.375 22.6973L371.382 22.6967L371.301 21.7ZM379.201 20.7L380.177 20.4831L379.948 19.4545L378.933 19.7365L379.201 20.7ZM378.801 29.5L378.633 30.4859L379.498 30.6328L379.757 29.7941L378.801 29.5ZM353.201 28.9L353.115 27.9036L352.293 27.9742L352.206 28.7953L353.201 28.9ZM352.601 49.5H351.601V50.4535L352.553 50.4989L352.601 49.5ZM375.701 48.5L376.689 48.3456L376.525 47.2948L375.486 47.5234L375.701 48.5ZM376.101 57.1L375.933 58.0858L377.014 58.2698L377.098 57.1767L376.101 57.1ZM352.601 56.5L352.555 55.501L351.601 55.5444V56.5H352.601ZM353.215 79.3963C355.596 79.6004 359.668 79.7 365.401 79.7V77.7C359.667 77.7 355.672 77.5996 353.386 77.4037L353.215 79.3963ZM365.401 79.7C371.161 79.7 375.857 79.3991 379.468 78.7859L379.133 76.8141C375.678 77.4009 371.107 77.7 365.401 77.7V79.7ZM378.345 78.0941C378.852 79.7405 379.101 81.3414 379.101 82.9H381.101C381.101 81.1253 380.817 79.3262 380.257 77.5059L378.345 78.0941ZM379.101 82.9C379.101 84.4476 378.972 85.7719 378.725 86.8831L380.677 87.3169C380.963 86.0281 381.101 84.5524 381.101 82.9H379.101ZM379.955 86.1329C378.589 85.7733 375.832 85.4352 371.782 85.1033L371.619 87.0967C375.703 87.4314 378.28 87.7601 379.446 88.0671L379.955 86.1329ZM371.766 85.1021C367.673 84.8338 363.084 84.7 358.001 84.7V86.7C363.051 86.7 367.595 86.8329 371.635 87.0979L371.766 85.1021ZM358.001 84.7C352.904 84.7 348.102 84.9347 343.597 85.4054L343.805 87.3946C348.233 86.9319 352.965 86.7 358.001 86.7V84.7ZM344.696 86.5009C345.633 77.2567 346.101 66.0543 346.101 52.9H344.101C344.101 66.0124 343.635 77.1433 342.706 86.2991L344.696 86.5009ZM346.101 52.9C346.101 39.7428 345.467 29.183 344.188 21.241L342.213 21.559C343.468 29.3504 344.101 39.7905 344.101 52.9H346.101ZM343.097 22.3946C347.603 22.8653 352.438 23.1 357.601 23.1V21.1C352.497 21.1 347.732 20.868 343.305 20.4054L343.097 22.3946ZM357.601 23.1C362.751 23.1 367.34 22.9663 371.367 22.6978L371.234 20.7022C367.262 20.9671 362.718 21.1 357.601 21.1V23.1ZM371.382 22.6967C375.427 22.3652 378.16 22.027 379.468 21.6635L378.933 19.7365C377.842 20.0397 375.308 20.3682 371.219 20.7033L371.382 22.6967ZM378.225 20.9169C378.473 22.0336 378.601 23.2928 378.601 24.7H380.601C380.601 23.1739 380.462 21.7664 380.177 20.4831L378.225 20.9169ZM378.601 24.7C378.601 26.0467 378.356 27.5463 377.845 29.2059L379.757 29.7941C380.313 27.987 380.601 26.2867 380.601 24.7H378.601ZM378.968 28.5141C375.358 27.901 370.729 27.6 365.101 27.6V29.6C370.672 29.6 375.177 29.899 378.633 30.4859L378.968 28.5141ZM365.101 27.6C359.5 27.6 355.496 27.6996 353.115 27.9036L353.286 29.8963C355.573 29.7004 359.501 29.6 365.101 29.6V27.6ZM352.206 28.7953C351.8 32.6542 351.601 39.5698 351.601 49.5H353.601C353.601 39.5636 353.801 32.7458 354.195 29.0047L352.206 28.7953ZM352.553 50.4989C353.982 50.5669 357.376 50.6 362.701 50.6V48.6C357.359 48.6 354.019 48.5664 352.648 48.5011L352.553 50.4989ZM362.701 50.6C368.071 50.6 372.484 50.2316 375.916 49.4766L375.486 47.5234C372.251 48.235 367.997 48.6 362.701 48.6V50.6ZM374.713 48.6544C375.042 50.7609 375.201 52.4715 375.201 53.8H377.201C377.201 52.3285 377.026 50.5058 376.689 48.3456L374.713 48.6544ZM375.201 53.8C375.201 55.1197 375.168 56.1918 375.104 57.0233L377.098 57.1767C377.167 56.2749 377.201 55.147 377.201 53.8H375.201ZM376.269 56.1142C373.059 55.5679 369.032 55.3 364.201 55.3V57.3C368.97 57.3 372.875 57.5654 375.933 58.0858L376.269 56.1142ZM364.201 55.3C359.394 55.3 355.51 55.3667 352.555 55.501L352.646 57.499C355.558 57.3666 359.408 57.3 364.201 57.3V55.3ZM351.601 56.5C351.601 65.2485 351.834 72.577 352.304 78.4793L354.298 78.3207C353.834 72.4897 353.601 65.2182 353.601 56.5H351.601ZM407.056 51.1L407.738 50.3681L407.031 49.7106L406.349 50.3929L407.056 51.1ZM420.556 51.4L419.867 50.675L419.864 50.6786L420.556 51.4ZM401.956 28.2L401.597 27.2667L401.014 27.4908L400.96 28.1128L401.956 28.2ZM402.956 85.8L403.246 86.757L404.214 86.4639L403.91 85.4997L402.956 85.8ZM392.356 86.6L391.363 86.4812L391.244 87.4761L392.239 87.5932L392.356 86.6ZM392.056 23.3L391.74 22.3513L390.921 22.6243L391.072 23.4744L392.056 23.3ZM429.556 52.8L430.376 53.3724L430.376 53.3724L429.556 52.8ZM418.356 59.5L418.173 58.517L416.728 58.7866L417.509 60.0313L418.356 59.5ZM435.956 85.5L436.403 86.3944L437.489 85.8519L436.749 84.8903L435.956 85.5ZM424.856 87.1L423.952 87.5277L424.197 88.0442L424.766 88.0959L424.856 87.1ZM409.256 59.7L410.1 59.1635L409.855 58.7787L409.405 58.7111L409.256 59.7ZM404.956 58.6H403.956V59.3109L404.628 59.5445L404.956 58.6ZM405.656 54L406.605 54.3163L406.609 54.3032L405.656 54ZM406.375 51.8319C408.495 53.806 411.039 54.8 413.956 54.8V52.8C411.54 52.8 409.484 51.994 407.738 50.3681L406.375 51.8319ZM413.956 54.8C416.897 54.8 419.362 53.9323 421.249 52.1214L419.864 50.6786C418.417 52.0677 416.482 52.8 413.956 52.8V54.8ZM421.245 52.125C424.174 49.3426 425.556 45.2722 425.556 40.1H423.556C423.556 44.9278 422.272 48.3907 419.868 50.675L421.245 52.125ZM425.556 40.1C425.556 35.325 424.424 31.5581 421.981 28.9864C419.53 26.405 415.924 25.2 411.356 25.2V27.2C415.589 27.2 418.582 28.3116 420.531 30.3636C422.489 32.4253 423.556 35.6083 423.556 40.1H425.556ZM411.356 25.2C408.401 25.2 405.143 25.9028 401.597 27.2667L402.315 29.1333C405.703 27.8305 408.712 27.2 411.356 27.2V25.2ZM400.96 28.1128C400.489 33.4959 400.256 43.5711 400.256 58.3H402.256C402.256 43.5622 402.49 33.5707 402.952 28.2872L400.96 28.1128ZM400.256 58.3C400.256 65.6766 400.398 71.6744 400.683 76.2867C400.966 80.8685 401.395 84.1712 402.002 86.1003L403.91 85.4997C403.384 83.8288 402.963 80.7482 402.679 76.1633C402.398 71.6089 402.256 65.6568 402.256 58.3H400.256ZM402.666 84.843C400.539 85.4875 398.605 85.8 396.856 85.8V87.8C398.841 87.8 400.973 87.4459 403.246 86.757L402.666 84.843ZM396.856 85.8C395.007 85.8 393.551 85.7337 392.473 85.6068L392.239 87.5932C393.428 87.733 394.972 87.8 396.856 87.8V85.8ZM393.349 86.7188C394.29 78.8603 394.756 67.9142 394.756 53.9H392.756C392.756 67.8858 392.29 78.7397 391.363 86.4812L393.349 86.7188ZM394.756 53.9C394.756 39.8924 394.191 29.6178 393.041 23.1256L391.072 23.4744C392.189 29.7822 392.756 39.9076 392.756 53.9H394.756ZM392.372 24.2487C397.849 22.4231 404.205 21.5 411.456 21.5V19.5C404.04 19.5 397.463 20.4436 391.74 22.3513L392.372 24.2487ZM411.456 21.5C418.593 21.5 423.76 23.1065 427.138 26.1436C430.495 29.1625 432.256 33.7499 432.256 40.1H434.256C434.256 33.3834 432.384 28.1708 428.475 24.6564C424.586 21.1601 418.852 19.5 411.456 19.5V21.5ZM432.256 40.1C432.256 44.8593 431.069 48.8856 428.736 52.2276L430.376 53.3724C432.976 49.6477 434.256 45.2074 434.256 40.1H432.256ZM428.736 52.2276C426.446 55.5076 422.965 57.6225 418.173 58.517L418.54 60.483C423.748 59.5109 427.733 57.1591 430.376 53.3724L428.736 52.2276ZM417.509 60.0313C424.582 71.3085 430.468 80.006 435.164 86.1097L436.749 84.8903C432.111 78.8606 426.264 70.2249 419.203 58.9686L417.509 60.0313ZM435.509 84.6056C433.36 85.68 431.279 86.2 429.256 86.2V88.2C431.634 88.2 434.019 87.5866 436.403 86.3944L435.509 84.6056ZM429.256 86.2C427.049 86.2 425.627 86.166 424.947 86.1041L424.766 88.0959C425.552 88.1673 427.064 88.2 429.256 88.2V86.2ZM425.76 86.6723C422.202 79.1537 416.978 69.9817 410.1 59.1635L408.412 60.2365C415.267 71.0183 420.444 80.113 423.952 87.5277L425.76 86.6723ZM409.405 58.7111C408.143 58.5219 406.771 58.1724 405.285 57.6555L404.628 59.5445C406.208 60.0942 407.702 60.4781 409.108 60.6889L409.405 58.7111ZM405.956 58.6C405.956 57.0271 406.176 55.602 406.605 54.3162L404.708 53.6838C404.203 55.198 403.956 56.8396 403.956 58.6H405.956ZM406.609 54.3032C407.076 52.837 407.485 52.0855 407.763 51.8071L406.349 50.3929C405.694 51.0478 405.17 52.2296 404.703 53.6968L406.609 54.3032Z" fill="white"/>
<defs>
<linearGradient id="paint0_linear" x1="489.773" y1="40.9562" x2="489.773" y2="58.5408" gradientUnits="userSpaceOnUse">
<stop stop-color="white"/>
<stop offset="1" stop-color="#FFDA1B"/>
</linearGradient>
<linearGradient id="paint1_linear" x1="483.686" y1="23.9127" x2="483.686" y2="39.4683" gradientUnits="userSpaceOnUse">
<stop stop-color="white"/>
<stop offset="1" stop-color="#FFDA1B"/>
</linearGradient>
<linearGradient id="paint2_linear" x1="495.86" y1="23.9127" x2="495.86" y2="39.4683" gradientUnits="userSpaceOnUse">
<stop stop-color="white"/>
<stop offset="1" stop-color="#FFDA1B"/>
</linearGradient>
<linearGradient id="paint3_linear" x1="476.573" y1="36.7599" x2="476.573" y2="46.317" gradientUnits="userSpaceOnUse">
<stop stop-color="white"/>
<stop offset="1" stop-color="#FFDA1B"/>
</linearGradient>
<linearGradient id="paint4_linear" x1="502.974" y1="36.7598" x2="502.974" y2="46.3169" gradientUnits="userSpaceOnUse">
<stop stop-color="white"/>
<stop offset="1" stop-color="#FFDA1B"/>
</linearGradient>
<clipPath id="clip0">
<rect width="34.6281" height="34.6281" fill="white" transform="translate(472.459 23.9127)"/>
</clipPath>
</defs>
</svg>
